<svg width="146" height="144" viewBox="0 0 146 144" fill="none" xmlns="http://www.w3.org/2000/svg">
<path d="M74.7148 0.808594C94.0508 1.19922 110.197 7.38411 123.152 19.3633C130.379 26.069 136.01 34.0443 140.047 43.2891C144.018 52.4688 146.004 62.0065 146.004 71.9023C146.004 80.4961 144.376 88.9596 141.121 97.293C137.866 105.626 133.309 113.016 127.449 119.461C119.897 127.729 110.815 133.849 100.203 137.82C91.7396 140.945 83.3411 142.508 75.0078 142.508C59.513 142.508 45.4505 137.723 32.8203 128.152C24.0312 121.577 17.1628 113.309 12.2148 103.348C7.20182 93.3867 4.69531 82.9375 4.69531 72C4.69531 52.7943 11.3034 36.2578 24.5195 22.3906C30.444 16.2057 34.6432 13.1133 37.1172 13.1133C37.9635 13.1133 38.6797 13.4714 39.2656 14.1875C39.8516 14.8385 40.1445 15.6523 40.1445 16.6289C40.1445 18.1263 39.0052 19.7214 36.7266 21.4141C19.3438 34.5 10.6523 51.2969 10.6523 71.8047C10.6523 74.2786 10.8151 76.7852 11.1406 79.3242L80.4766 79.8125L139.363 79.3242C139.819 76.9154 140.047 74.474 140.047 72C140.047 64.6432 138.81 57.5143 136.336 50.6133C130.151 33.1654 118.79 20.6328 102.254 13.0156C95.2878 9.76042 88.1914 7.83984 80.9648 7.25391L80.9648 58.2305C80.8346 62.7227 80.6068 65.4245 80.2812 66.3359C79.9557 67.2474 79.1094 67.7031 77.7422 67.7031C75.6589 67.7031 74.6172 66.1406 74.6172 63.0156L74.7148 57.1562L74.7148 0.808594Z" fill="#93B3E3"/>
<path d="M116.951 102.27C119.491 102.27 120.76 103.441 120.76 105.785C120.76 107.543 119.621 109.626 117.342 112.035C107.056 122.582 92.9606 127.855 75.0569 127.855C58.9762 127.855 45.4345 123.005 34.4319 113.305C23.0387 103.214 17.3421 90.4531 17.3421 75.0234C17.3421 59.2682 22.4853 46.3125 32.7718 36.1562C43.6442 25.349 58.0973 19.9453 76.1312 19.9453C90.5843 19.9453 102.726 24.3398 112.557 33.1289C123.169 42.569 128.475 54.9714 128.475 70.3359C128.475 72.5495 128.41 74.8932 128.28 77.3672H63.8265V119.262C68.2535 120.173 73.234 120.629 78.7679 120.629C90.4866 120.629 100.48 116.755 108.748 109.008C110.441 107.315 111.645 105.98 112.362 105.004C113.859 103.181 115.389 102.27 116.951 102.27ZM90.8772 28.9297C86.6455 27.6927 81.8603 27.0742 76.5218 27.0742C71.1832 27.0742 66.9515 27.4323 63.8265 28.1484V70.2383H90.8772V28.9297Z" fill="url(#paint0_linear_4_5)"/>
<defs>
<linearGradient id="paint0_linear_4_5" x1="72.9085" y1="132" x2="9.2577" y2="125.256" gradientUnits="userSpaceOnUse">
<stop offset="0.360025" stop-color="#C7185B"/>
<stop offset="0.664367" stop-color="#D53570" stop-opacity="0.68"/>
<stop offset="0.9999" stop-color="#F2739C"/>
<stop offset="1" stop-color="#F2739C" stop-opacity="0"/>
</linearGradient>
</defs>
</svg>
